<svg xmlns="http://www.w3.org/2000/svg" viewBox="0 0 196.66 55.74"><defs><style>.cls-1{fill:#fff;}</style></defs><g id="Capa_2" data-name="Capa 2"><g id="Landing"><path class="cls-1" d="M81.09,27.62H70.5l-.59,1.72-.61,1.82c-.2.59-.39,1.15-.58,1.66s-.32.94-.43,1.28a3.24,3.24,0,0,1-1.3.24A1.93,1.93,0,0,1,65.86,34a1.2,1.2,0,0,1-.49-1.08,2.37,2.37,0,0,1,.12-.73q.12-.37.27-.81c.4-1.11.9-2.53,1.52-4.27s1.29-3.59,2-5.55,1.46-3.94,2.21-5.92,1.44-3.78,2.07-5.36a5,5,0,0,1,1-.31,5.14,5.14,0,0,1,1.3-.16,4.9,4.9,0,0,1,1.53.24,1.33,1.33,0,0,1,.92.79c.64,1.52,1.31,3.27,2,5.23s1.45,4,2.19,6,1.44,4.08,2.11,6.07,1.27,3.78,1.8,5.39a2.33,2.33,0,0,1-.75.57,2.12,2.12,0,0,1-1,.22A1.67,1.67,0,0,1,83.54,34a2.46,2.46,0,0,1-.67-1.12ZM75.79,12.5c-.28.79-.61,1.69-1,2.7l-1.15,3.18c-.39,1.11-.79,2.23-1.18,3.36S71.71,24,71.37,25h8.89c-.4-1.19-.81-2.38-1.23-3.58s-.82-2.35-1.2-3.45-.74-2.13-1.07-3.06-.6-1.74-.81-2.39Z"/><path class="cls-1" d="M91.57,33.55a1.71,1.71,0,0,1-.49-1.26V10.09a4.38,4.38,0,0,1,.61-.18,3.68,3.68,0,0,1,.89-.1c1.16,0,1.74.49,1.74,1.46v20h11.34a1.76,1.76,0,0,1,.43,1.3,1.57,1.57,0,0,1-.35,1.07,1.24,1.24,0,0,1-.95.39h-12A1.72,1.72,0,0,1,91.57,33.55Z"/><path class="cls-1" d="M127.22,12.65a1.43,1.43,0,0,1-.33.95,2.15,2.15,0,0,1-.77.59,16.29,16.29,0,0,0-2.41-1.34,9.89,9.89,0,0,0-6.95,0,7.48,7.48,0,0,0-2.69,1.86,8.53,8.53,0,0,0-1.8,3.08,13,13,0,0,0-.65,4.26,13,13,0,0,0,.63,4.27,8.54,8.54,0,0,0,1.76,3,7.06,7.06,0,0,0,2.71,1.84,9.58,9.58,0,0,0,3.51.61,10.23,10.23,0,0,0,3.58-.57,9.93,9.93,0,0,0,2.54-1.36,1.79,1.79,0,0,1,.75.57,1.44,1.44,0,0,1,.36,1,1.89,1.89,0,0,1-.95,1.5A9.13,9.13,0,0,1,124,34a13.68,13.68,0,0,1-4,.5,13.38,13.38,0,0,1-4.62-.79,10.18,10.18,0,0,1-3.69-2.35,11.23,11.23,0,0,1-2.47-3.89,14.91,14.91,0,0,1-.91-5.46,14.82,14.82,0,0,1,.93-5.47,11.59,11.59,0,0,1,2.51-3.93,10.26,10.26,0,0,1,3.69-2.37,12.75,12.75,0,0,1,4.45-.79,15.4,15.4,0,0,1,3,.28,10.86,10.86,0,0,1,2.33.73,4.93,4.93,0,0,1,1.5,1A1.7,1.7,0,0,1,127.22,12.65Z"/><path class="cls-1" d="M147.09,27.62H136.5l-.59,1.72-.61,1.82c-.2.59-.39,1.15-.57,1.66s-.33.94-.44,1.28a3.24,3.24,0,0,1-1.3.24,1.93,1.93,0,0,1-1.13-.34,1.2,1.2,0,0,1-.49-1.08,2.37,2.37,0,0,1,.12-.73q.12-.37.27-.81c.4-1.11.91-2.53,1.52-4.27s1.29-3.59,2-5.55,1.46-3.94,2.21-5.92,1.44-3.78,2.08-5.36a4.86,4.86,0,0,1,.94-.31,5.17,5.17,0,0,1,1.31-.16,4.88,4.88,0,0,1,1.52.24,1.37,1.37,0,0,1,.93.79c.63,1.52,1.31,3.27,2,5.23s1.45,4,2.19,6,1.44,4.08,2.12,6.07,1.26,3.78,1.79,5.39a2.33,2.33,0,0,1-.75.57,2.12,2.12,0,0,1-1,.22,1.67,1.67,0,0,1-1.14-.34,2.46,2.46,0,0,1-.67-1.12ZM141.8,12.5l-1,2.7-1.15,3.18c-.39,1.11-.79,2.23-1.18,3.36S137.71,24,137.37,25h8.89c-.39-1.19-.8-2.38-1.22-3.58s-.83-2.35-1.21-3.45-.74-2.13-1.07-3.06L142,12.5Z"/><path class="cls-1" d="M171.66,27.62H161.07l-.59,1.72-.61,1.82c-.2.59-.39,1.15-.58,1.66s-.32.94-.43,1.28a3.24,3.24,0,0,1-1.3.24,1.93,1.93,0,0,1-1.13-.34,1.2,1.2,0,0,1-.49-1.08,2.37,2.37,0,0,1,.12-.73q.12-.37.27-.81c.4-1.11.9-2.53,1.52-4.27s1.29-3.59,2-5.55,1.46-3.94,2.21-5.92,1.44-3.78,2.07-5.36a5,5,0,0,1,.95-.31,5.14,5.14,0,0,1,1.3-.16,4.9,4.9,0,0,1,1.53.24,1.33,1.33,0,0,1,.92.79c.64,1.52,1.31,3.27,2,5.23s1.45,4,2.19,6,1.44,4.08,2.11,6.07,1.27,3.78,1.8,5.39a2.33,2.33,0,0,1-.75.57,2.12,2.12,0,0,1-1,.22,1.67,1.67,0,0,1-1.14-.34,2.46,2.46,0,0,1-.67-1.12Zm-5.3-15.12c-.28.79-.61,1.69-1,2.7l-1.15,3.18c-.39,1.11-.79,2.23-1.18,3.36S162.28,24,161.94,25h8.89c-.4-1.19-.81-2.38-1.23-3.58s-.82-2.35-1.2-3.45-.74-2.13-1.07-3.06-.6-1.74-.81-2.39Z"/><path class="cls-1" d="M182.14,33.55a1.71,1.71,0,0,1-.49-1.26V10.09a4.38,4.38,0,0,1,.61-.18,3.68,3.68,0,0,1,.89-.1c1.16,0,1.74.49,1.74,1.46v20h11.34a1.76,1.76,0,0,1,.43,1.3,1.57,1.57,0,0,1-.35,1.07,1.24,1.24,0,0,1-.95.39h-12A1.72,1.72,0,0,1,182.14,33.55Z"/><path class="cls-1" d="M103.12,50a.5.5,0,0,1-.19.4.66.66,0,0,1-.44.17.69.69,0,0,1-.59-.33l-1.76-2.73a1.84,1.84,0,0,0-.64-.66,1.78,1.78,0,0,0-.89-.19H97.12v3.2a.68.68,0,0,1-.17.5.76.76,0,0,1-1,0,.68.68,0,0,1-.18-.5v-8a.61.61,0,0,1,.67-.66h3.26a3.52,3.52,0,0,1,2.35.69,2.48,2.48,0,0,1,.8,2,2.52,2.52,0,0,1-.61,1.77,3,3,0,0,1-1.76.86,1.63,1.63,0,0,1,.61.32,2.65,2.65,0,0,1,.54.66L103,49.63A.6.6,0,0,1,103.12,50Zm-3.55-4.43a2.41,2.41,0,0,0,1.51-.4,1.81,1.81,0,0,0,0-2.47,2.43,2.43,0,0,0-1.52-.39H97.11v3.26Z"/><path class="cls-1" d="M106.59,50.29a.64.64,0,0,1-.17-.48V41.87a.64.64,0,0,1,.17-.48.66.66,0,0,1,.49-.18h4.83a.66.66,0,0,1,.47.15.5.5,0,0,1,.16.41.51.51,0,0,1-.16.4.71.71,0,0,1-.47.13h-4.17v2.92h3.91a.68.68,0,0,1,.47.14.51.51,0,0,1,.16.41.49.49,0,0,1-.16.4.68.68,0,0,1-.47.15h-3.91v3.06h4.17c.42,0,.63.18.63.53a.5.5,0,0,1-.16.41.66.66,0,0,1-.47.15h-4.83A.66.66,0,0,1,106.59,50.29Z"/><path class="cls-1" d="M123.09,41.34a.69.69,0,0,1,.18.49v8a.7.7,0,0,1-.19.49.61.61,0,0,1-.47.19.63.63,0,0,1-.53-.26l-5.14-6.79v6.37a.69.69,0,0,1-.18.49.66.66,0,0,1-.92,0,.68.68,0,0,1-.17-.5v-8a.69.69,0,0,1,.18-.49.67.67,0,0,1,1,.07l5.14,6.8V41.83a.73.73,0,0,1,.17-.49.59.59,0,0,1,.46-.19A.61.61,0,0,1,123.09,41.34Z"/><path class="cls-1" d="M128.69,50a3.83,3.83,0,0,1-1.49-1.64,5.58,5.58,0,0,1-.52-2.5,5.69,5.69,0,0,1,.52-2.53,3.75,3.75,0,0,1,1.48-1.64,4.89,4.89,0,0,1,4.58,0,3.71,3.71,0,0,1,1.49,1.64,6.34,6.34,0,0,1,0,5A3.71,3.71,0,0,1,133.26,50a4.79,4.79,0,0,1-4.57,0Zm4.44-1.47a4.11,4.11,0,0,0,.78-2.69,4.15,4.15,0,0,0-.77-2.68,2.64,2.64,0,0,0-2.17-.94,2.61,2.61,0,0,0-2.15.94,4.15,4.15,0,0,0-.76,2.68,4.16,4.16,0,0,0,.76,2.69,2.92,2.92,0,0,0,4.31,0Z"/><path class="cls-1" d="M145.78,41.14a.71.71,0,0,1,.48.17.54.54,0,0,1,.21.43.88.88,0,0,1-.07.25l-3.7,8.11a.72.72,0,0,1-.29.33.78.78,0,0,1-.42.11.84.84,0,0,1-.43-.11.72.72,0,0,1-.29-.33L137.58,42a.79.79,0,0,1-.06-.25.52.52,0,0,1,.21-.43.74.74,0,0,1,.48-.17.59.59,0,0,1,.58.36L142,48.71l3.22-7.21A.58.58,0,0,1,145.78,41.14Z"/><path class="cls-1" d="M156.61,49.94a.53.53,0,0,1-.2.42.73.73,0,0,1-.46.17.55.55,0,0,1-.32-.1.58.58,0,0,1-.23-.28l-.86-2h-4.81l-.86,2a.6.6,0,0,1-.24.28.56.56,0,0,1-.33.1.71.71,0,0,1-.46-.17.51.51,0,0,1-.21-.42.78.78,0,0,1,.07-.26l3.7-8.1a.68.68,0,0,1,.3-.33.78.78,0,0,1,.42-.11.84.84,0,0,1,.43.11.72.72,0,0,1,.29.33l3.7,8.1A.6.6,0,0,1,156.61,49.94Zm-6.39-2.83h3.84l-1.92-4.35Z"/><path class="cls-1" d="M166.28,46.5a2.35,2.35,0,0,1,.43,1.45,2.24,2.24,0,0,1-.82,1.85,3.55,3.55,0,0,1-2.29.67h-3.34a.64.64,0,0,1-.49-.18.65.65,0,0,1-.18-.48V41.87a.65.65,0,0,1,.18-.48.64.64,0,0,1,.49-.18h3.2a3.57,3.57,0,0,1,2.24.64,2.13,2.13,0,0,1,.8,1.78,2.1,2.1,0,0,1-.38,1.27,2.27,2.27,0,0,1-1.08.8A2.34,2.34,0,0,1,166.28,46.5Zm-5.37-1.28h2.34c1.3,0,1.94-.49,1.94-1.47a1.26,1.26,0,0,0-.48-1.09,2.41,2.41,0,0,0-1.46-.36h-2.34Zm4,3.79a1.36,1.36,0,0,0,.48-1.14,1.43,1.43,0,0,0-.48-1.18,2.34,2.34,0,0,0-1.48-.38h-2.55v3.07h2.55A2.44,2.44,0,0,0,164.94,49Z"/><path class="cls-1" d="M170.24,50.3a.62.62,0,0,1-.18-.46v-8a.69.69,0,0,1,.18-.49.66.66,0,0,1,.49-.19.62.62,0,0,1,.68.68v7.51h4a.73.73,0,0,1,.47.14.54.54,0,0,1,.16.42.51.51,0,0,1-.16.42.68.68,0,0,1-.47.15h-4.68A.69.69,0,0,1,170.24,50.3Z"/><path class="cls-1" d="M179,50.29a.65.65,0,0,1-.18-.48V41.87a.65.65,0,0,1,.18-.48.66.66,0,0,1,.49-.18h4.83a.68.68,0,0,1,.47.15.5.5,0,0,1,.16.41.51.51,0,0,1-.16.4.73.73,0,0,1-.47.13h-4.17v2.92h3.91a.68.68,0,0,1,.47.14.55.55,0,0,1,.16.41.53.53,0,0,1-.16.4.68.68,0,0,1-.47.15h-3.91v3.06h4.17c.42,0,.63.18.63.53a.5.5,0,0,1-.16.41.68.68,0,0,1-.47.15h-4.83A.66.66,0,0,1,179,50.29Z"/><path class="cls-1" d="M189.1,50.3a3.78,3.78,0,0,1-1.44-.77.66.66,0,0,1-.25-.53.6.6,0,0,1,.13-.4.4.4,0,0,1,.32-.17.88.88,0,0,1,.44.17,4.36,4.36,0,0,0,2.67.87,2.74,2.74,0,0,0,1.61-.4,1.26,1.26,0,0,0,.56-1.12.93.93,0,0,0-.52-.87,6.8,6.8,0,0,0-1.68-.55,10.22,10.22,0,0,1-1.81-.54,2.69,2.69,0,0,1-1.11-.82,2.06,2.06,0,0,1-.4-1.32,2.42,2.42,0,0,1,.44-1.42,2.8,2.8,0,0,1,1.23-1,4.4,4.4,0,0,1,1.79-.35,5.54,5.54,0,0,1,1.72.26,3.56,3.56,0,0,1,1.34.78.67.67,0,0,1,.13.93.43.43,0,0,1-.33.17.92.92,0,0,1-.43-.17,4.76,4.76,0,0,0-1.13-.67,3.74,3.74,0,0,0-1.28-.2,2.67,2.67,0,0,0-1.58.41,1.36,1.36,0,0,0-.56,1.15,1,1,0,0,0,.5.95,5.3,5.3,0,0,0,1.6.59,13.88,13.88,0,0,1,1.87.54,2.89,2.89,0,0,1,1.14.78,1.89,1.89,0,0,1,.43,1.26,2.35,2.35,0,0,1-.44,1.4,2.93,2.93,0,0,1-1.24,1,4.74,4.74,0,0,1-1.83.33A6.49,6.49,0,0,1,189.1,50.3Z"/><path class="cls-1" d="M55.69,27.62a.66.66,0,0,0-.61-.4H42.67a10,10,0,0,0,5.1-8.71V8.63a.64.64,0,0,0-.4-.6.62.62,0,0,0-.71.14L37.83,17a10.07,10.07,0,0,0-2.58-9.87L28.32.19a.64.64,0,0,0-.71-.14.66.66,0,0,0-.4.6V13.12A10.1,10.1,0,0,0,18.42,8H8.62a.64.64,0,0,0-.6.4.65.65,0,0,0,.14.71l8.7,8.7a9.86,9.86,0,0,0-9.59,2.53L.19,27.4a.66.66,0,0,0,.46,1.12H13a9.87,9.87,0,0,0-5,8.57v10a.66.66,0,0,0,.4.6.74.74,0,0,0,.25,0,.66.66,0,0,0,.46-.19l8.82-8.82a10.06,10.06,0,0,0,2.56,9.84l7,7a.68.68,0,0,0,.46.19.7.7,0,0,0,.25-.05.65.65,0,0,0,.41-.61V42.63a10,10,0,0,0,8.75,5.13h9.84a.65.65,0,0,0,.46-1.11l-8.76-8.76a10.28,10.28,0,0,0,2.66.36,10,10,0,0,0,7.08-2.93l7-7A.68.68,0,0,0,55.69,27.62ZM28,37.4c-8-5.94-10.12-11.59-9.38-14.93a4.1,4.1,0,0,1,3.31-3.31,3.56,3.56,0,0,1,.78-.08c3.36,0,4.63,4.41,4.69,4.61a.62.62,0,0,0,1.19,0c0-.06,1.89-5.42,5.88-4.66a3.89,3.89,0,0,1,3.15,3.15C38.34,25.59,36.19,31.32,28,37.4ZM46.46,18.51a8.71,8.71,0,0,1-8.21,8.68A9.36,9.36,0,0,0,38.82,22a5.58,5.58,0,0,0-1.43-2.68l9.07-9.07ZM34.33,8.05a8.7,8.7,0,0,1,2.58,6.21,8.8,8.8,0,0,1-1,4,5.31,5.31,0,0,0-1.26-.41c-2.84-.54-4.92,1.28-6.17,3.19V2.23ZM18.42,9.28a8.8,8.8,0,0,1,8.79,8.79v2.42a5.39,5.39,0,0,0-5.55-2.56,5.46,5.46,0,0,0-2,.82L10.19,9.28ZM8.2,21.24a8.57,8.57,0,0,1,10.27-1.39,5.94,5.94,0,0,0-1.1,2.35,9.38,9.38,0,0,0,.46,5H2.23ZM9.27,37.09a8.59,8.59,0,0,1,8.57-8.57h.51a19.61,19.61,0,0,0,3.18,4.75L9.27,45.53ZM21.38,47.67a8.77,8.77,0,0,1,0-12.38l1-1a38.4,38.4,0,0,0,4.8,4.14V53.51Zm24.16-1.21H37.28a8.77,8.77,0,0,1-8.71-8,38.31,38.31,0,0,0,4.85-4.16l1,1,.09.08Zm2.1-12.06a8.7,8.7,0,0,1-12.23.08l-1.1-1.1a21.63,21.63,0,0,0,3.36-4.85H53.51Z"/></g></g></svg>