<svg xmlns="http://www.w3.org/2000/svg" viewBox="0 0 214.58 60.82"><defs><style>.cls-1{fill:#fff;}.cls-2{fill:#31c2d1;}</style></defs><g id="Capa_2" data-name="Capa 2"><g id="Landing"><path class="cls-1" d="M88.48,30.14H76.93c-.2.58-.42,1.2-.65,1.88l-.67,2c-.21.65-.42,1.25-.62,1.81s-.36,1-.48,1.4a3.6,3.6,0,0,1-1.42.26,2.1,2.1,0,0,1-1.23-.37,1.32,1.32,0,0,1-.54-1.18,2.84,2.84,0,0,1,.13-.8c.09-.27.19-.57.31-.88l1.65-4.66c.68-1.9,1.41-3.91,2.2-6s1.6-4.3,2.42-6.47S79.6,13,80.29,11.22a5.33,5.33,0,0,1,1-.34,5.66,5.66,0,0,1,1.43-.18A5.37,5.37,0,0,1,84.4,11a1.46,1.46,0,0,1,1,.86q1,2.5,2.22,5.72c.79,2.14,1.58,4.33,2.39,6.57s1.57,4.44,2.3,6.61,1.39,4.13,2,5.89a3,3,0,0,1-.82.62,2.38,2.38,0,0,1-1.08.24,1.85,1.85,0,0,1-1.25-.37,2.72,2.72,0,0,1-.73-1.23ZM82.7,13.63c-.31.87-.67,1.85-1.08,3s-.81,2.26-1.25,3.47-.86,2.42-1.29,3.66-.83,2.41-1.2,3.53h9.69c-.43-1.29-.87-2.59-1.33-3.9s-.9-2.56-1.32-3.77-.8-2.32-1.16-3.34-.66-1.89-.89-2.61Z"/><path class="cls-1" d="M99.92,36.61a1.84,1.84,0,0,1-.54-1.38V11a4.38,4.38,0,0,1,.67-.2,4.23,4.23,0,0,1,1-.11c1.26,0,1.9.54,1.9,1.6V34.11h12.36a1.91,1.91,0,0,1,.48,1.42,1.64,1.64,0,0,1-.39,1.16,1.31,1.31,0,0,1-1,.43H101.28A1.9,1.9,0,0,1,99.92,36.61Z"/><path class="cls-1" d="M138.82,13.81a1.57,1.57,0,0,1-.37,1,2.58,2.58,0,0,1-.84.65A16.88,16.88,0,0,0,135,14a10.77,10.77,0,0,0-7.59,0,8.35,8.35,0,0,0-2.93,2,9.53,9.53,0,0,0-2,3.36,14.11,14.11,0,0,0-.71,4.65,14.16,14.16,0,0,0,.69,4.66A9.39,9.39,0,0,0,124.4,32a7.7,7.7,0,0,0,2.95,2,10.46,10.46,0,0,0,3.84.67,11,11,0,0,0,3.9-.63,10.84,10.84,0,0,0,2.78-1.48,2.17,2.17,0,0,1,.82.62,1.62,1.62,0,0,1,.38,1.06,2,2,0,0,1-1,1.64,10.09,10.09,0,0,1-2.72,1.23,15.29,15.29,0,0,1-4.39.53,14.27,14.27,0,0,1-5-.86,10.94,10.94,0,0,1-4-2.56,12.1,12.1,0,0,1-2.7-4.25,16.34,16.34,0,0,1-1-6,16.28,16.28,0,0,1,1-6,12.5,12.5,0,0,1,2.74-4.29,11.21,11.21,0,0,1,4-2.59,13.84,13.84,0,0,1,4.85-.86,16.41,16.41,0,0,1,3.25.3,11.45,11.45,0,0,1,2.55.8,5.12,5.12,0,0,1,1.63,1.12A1.86,1.86,0,0,1,138.82,13.81Z"/><path class="cls-1" d="M160.49,30.14H148.94L148.3,32c-.23.67-.46,1.33-.67,2s-.43,1.25-.63,1.81-.36,1-.47,1.4a3.64,3.64,0,0,1-1.42.26,2.1,2.1,0,0,1-1.23-.37,1.32,1.32,0,0,1-.54-1.18,2.53,2.53,0,0,1,.13-.8c.09-.27.19-.57.3-.88.43-1.21,1-2.76,1.66-4.66s1.41-3.91,2.2-6,1.59-4.3,2.41-6.47,1.58-4.11,2.27-5.84a5.1,5.1,0,0,1,1-.34,5.58,5.58,0,0,1,1.42-.18,5.39,5.39,0,0,1,1.66.26,1.44,1.44,0,0,1,1,.86q1,2.5,2.22,5.72t2.4,6.57q1.2,3.36,2.3,6.61c.73,2.17,1.39,4.13,2,5.89a2.82,2.82,0,0,1-.82.62,2.31,2.31,0,0,1-1.07.24,1.83,1.83,0,0,1-1.25-.37,2.73,2.73,0,0,1-.74-1.23Zm-5.77-16.51c-.32.87-.68,1.85-1.08,3s-.82,2.26-1.25,3.47-.86,2.42-1.29,3.66-.84,2.41-1.21,3.53h9.7c-.43-1.29-.88-2.59-1.34-3.9s-.9-2.56-1.31-3.77l-1.17-3.34c-.36-1-.65-1.89-.88-2.61Z"/><path class="cls-1" d="M187.3,30.14H175.75c-.2.58-.42,1.2-.65,1.88s-.45,1.33-.66,2-.43,1.25-.63,1.81-.36,1-.47,1.4a3.69,3.69,0,0,1-1.43.26,2.07,2.07,0,0,1-1.22-.37,1.32,1.32,0,0,1-.54-1.18,2.53,2.53,0,0,1,.13-.8c.08-.27.18-.57.3-.88l1.66-4.66c.67-1.9,1.4-3.91,2.2-6s1.59-4.3,2.41-6.47,1.57-4.11,2.26-5.84a5.47,5.47,0,0,1,1-.34,5.58,5.58,0,0,1,1.42-.18,5.44,5.44,0,0,1,1.66.26,1.44,1.44,0,0,1,1,.86q1,2.5,2.22,5.72t2.39,6.57q1.22,3.36,2.31,6.61t2,5.89a2.82,2.82,0,0,1-.82.62,2.38,2.38,0,0,1-1.08.24A1.87,1.87,0,0,1,190,37.1a2.72,2.72,0,0,1-.73-1.23Zm-5.77-16.51c-.32.87-.68,1.85-1.08,3s-.82,2.26-1.25,3.47-.86,2.42-1.3,3.66-.83,2.41-1.2,3.53h9.7c-.44-1.29-.88-2.59-1.34-3.9s-.9-2.56-1.31-3.77l-1.17-3.34c-.36-1-.65-1.89-.88-2.61Z"/><path class="cls-1" d="M198.74,36.61a1.84,1.84,0,0,1-.54-1.38V11a4.78,4.78,0,0,1,.67-.2,4.3,4.3,0,0,1,1-.11c1.27,0,1.9.54,1.9,1.6V34.11h12.37a1.94,1.94,0,0,1,.47,1.42,1.64,1.64,0,0,1-.39,1.16,1.29,1.29,0,0,1-1,.43H200.1A1.9,1.9,0,0,1,198.74,36.61Z"/><path class="cls-2" d="M112.52,54.55a.56.56,0,0,1-.21.44.76.76,0,0,1-.48.17.72.72,0,0,1-.64-.35l-1.92-3a1.94,1.94,0,0,0-.7-.72,2,2,0,0,0-1-.21H106v3.49a.77.77,0,0,1-.2.55.8.8,0,0,1-1.06,0,.73.73,0,0,1-.2-.55v-8.7a.72.72,0,0,1,.19-.53.73.73,0,0,1,.54-.19h3.56a3.91,3.91,0,0,1,2.56.74,3.11,3.11,0,0,1,.2,4.11,3.12,3.12,0,0,1-1.91.93,1.82,1.82,0,0,1,.67.36,3.25,3.25,0,0,1,.59.72l1.47,2.32A.66.66,0,0,1,112.52,54.55Zm-3.88-4.84a2.6,2.6,0,0,0,1.65-.44,2,2,0,0,0,0-2.69,2.66,2.66,0,0,0-1.66-.42H106v3.55Z"/><path class="cls-2" d="M116.31,54.87a.7.7,0,0,1-.2-.52V45.69a.72.72,0,0,1,.2-.53.69.69,0,0,1,.53-.19h5.27a.73.73,0,0,1,.51.16.63.63,0,0,1,0,.88.78.78,0,0,1-.51.15h-4.55v3.18h4.27a.75.75,0,0,1,.5.15.58.58,0,0,1,.18.45.54.54,0,0,1-.18.44.7.7,0,0,1-.5.16h-4.27v3.34h4.55c.46,0,.69.19.69.58a.58.58,0,0,1-.18.45.78.78,0,0,1-.51.15h-5.27A.69.69,0,0,1,116.31,54.87Z"/><path class="cls-2" d="M134.3,45.11a.72.72,0,0,1,.2.53v8.75a.77.77,0,0,1-.2.54.7.7,0,0,1-.52.21.65.65,0,0,1-.57-.29l-5.61-7.4v6.94a.77.77,0,0,1-.2.54.72.72,0,0,1-1,0,.81.81,0,0,1-.18-.55V45.64a.69.69,0,0,1,.2-.53.66.66,0,0,1,.51-.21.67.67,0,0,1,.58.28l5.61,7.42v-7a.72.72,0,0,1,.19-.53.7.7,0,0,1,1,0Z"/><path class="cls-2" d="M140.42,54.55a4.29,4.29,0,0,1-1.63-1.79,6.89,6.89,0,0,1,0-5.49,4,4,0,0,1,1.62-1.79,5.35,5.35,0,0,1,5,0A4,4,0,0,1,147,47.27a6.87,6.87,0,0,1,0,5.48,4.05,4.05,0,0,1-1.62,1.8,4.82,4.82,0,0,1-2.51.63A4.74,4.74,0,0,1,140.42,54.55Zm4.85-1.6a4.56,4.56,0,0,0,.84-2.94,4.51,4.51,0,0,0-.84-2.93,2.9,2.9,0,0,0-2.37-1,2.86,2.86,0,0,0-2.34,1,4.51,4.51,0,0,0-.84,2.93,4.56,4.56,0,0,0,.84,2.94,2.87,2.87,0,0,0,2.34,1A2.93,2.93,0,0,0,145.27,53Z"/><path class="cls-2" d="M159.07,44.88a.76.76,0,0,1,.51.2.56.56,0,0,1,.23.46.67.67,0,0,1-.07.27l-4,8.85a.69.69,0,0,1-.31.36.88.88,0,0,1-.92,0,.72.72,0,0,1-.33-.36l-4-8.85a.67.67,0,0,1-.07-.27.58.58,0,0,1,.23-.47.88.88,0,0,1,.53-.19.67.67,0,0,1,.63.4l3.5,7.87,3.51-7.87A.65.65,0,0,1,159.07,44.88Z"/><path class="cls-2" d="M170.88,54.49a.57.57,0,0,1-.22.46.77.77,0,0,1-.49.19.66.66,0,0,1-.36-.11.7.7,0,0,1-.25-.31l-.94-2.15h-5.24l-.95,2.15a.64.64,0,0,1-.25.31.72.72,0,0,1-.36.11.8.8,0,0,1-.51-.19.57.57,0,0,1-.22-.46.71.71,0,0,1,.07-.28l4-8.84a.74.74,0,0,1,.32-.36.9.9,0,0,1,.93,0,.74.74,0,0,1,.32.36l4,8.84A.71.71,0,0,1,170.88,54.49Zm-7-3.09h4.19L166,46.66Z"/><path class="cls-2" d="M181.43,50.74a2.54,2.54,0,0,1,.48,1.58,2.45,2.45,0,0,1-.9,2,3.9,3.9,0,0,1-2.5.72h-3.65a.69.69,0,0,1-.53-.19.7.7,0,0,1-.2-.52V45.69a.72.72,0,0,1,.2-.53.69.69,0,0,1,.53-.19h3.5a3.87,3.87,0,0,1,2.44.69,2.36,2.36,0,0,1,.88,1.94,2.31,2.31,0,0,1-.42,1.39,2.56,2.56,0,0,1-1.19.88A2.45,2.45,0,0,1,181.43,50.74Zm-5.85-1.4h2.55c1.41,0,2.12-.54,2.12-1.61a1.39,1.39,0,0,0-.53-1.19,2.74,2.74,0,0,0-1.59-.38h-2.55ZM180,53.47a1.45,1.45,0,0,0,.52-1.24A1.57,1.57,0,0,0,180,51a2.56,2.56,0,0,0-1.61-.42h-2.78v3.35h2.78A2.59,2.59,0,0,0,180,53.47Z"/><path class="cls-2" d="M185.75,54.88a.66.66,0,0,1-.19-.5V45.64a.72.72,0,0,1,.2-.53.69.69,0,0,1,.53-.21.73.73,0,0,1,.54.2.69.69,0,0,1,.2.54v8.19h4.36a.75.75,0,0,1,.5.16.68.68,0,0,1,0,.92.75.75,0,0,1-.5.15h-5.12A.73.73,0,0,1,185.75,54.88Z"/><path class="cls-2" d="M195.3,54.87a.69.69,0,0,1-.19-.52V45.69a.72.72,0,0,1,.19-.53.73.73,0,0,1,.54-.19h5.27a.73.73,0,0,1,.51.16.63.63,0,0,1,0,.88.78.78,0,0,1-.51.15h-4.56v3.18h4.27a.78.78,0,0,1,.51.15.58.58,0,0,1,.18.45.54.54,0,0,1-.18.44.73.73,0,0,1-.51.16h-4.27v3.34h4.56c.46,0,.69.19.69.58a.58.58,0,0,1-.18.45.78.78,0,0,1-.51.15h-5.27A.73.73,0,0,1,195.3,54.87Z"/><path class="cls-2" d="M206.33,54.88a4.09,4.09,0,0,1-1.57-.83.74.74,0,0,1-.27-.59.72.72,0,0,1,.14-.44.42.42,0,0,1,.34-.17,1,1,0,0,1,.49.18,4.76,4.76,0,0,0,2.91.95,3.11,3.11,0,0,0,1.76-.43,1.41,1.41,0,0,0,.61-1.23,1,1,0,0,0-.57-1,7.43,7.43,0,0,0-1.83-.6,11.06,11.06,0,0,1-2-.59,3,3,0,0,1-1.21-.89,2.3,2.3,0,0,1-.43-1.44,2.67,2.67,0,0,1,.48-1.56,3.22,3.22,0,0,1,1.33-1.06,4.91,4.91,0,0,1,2-.37,5.91,5.91,0,0,1,1.87.28,3.85,3.85,0,0,1,1.46.85.73.73,0,0,1,.29.58A.64.64,0,0,1,212,47a.43.43,0,0,1-.35.19.87.87,0,0,1-.47-.19,5.45,5.45,0,0,0-1.24-.72,3.88,3.88,0,0,0-1.4-.22,2.88,2.88,0,0,0-1.72.45,1.46,1.46,0,0,0-.61,1.25,1.16,1.16,0,0,0,.54,1,6,6,0,0,0,1.75.64,15.1,15.1,0,0,1,2,.59,3.15,3.15,0,0,1,1.24.85,2,2,0,0,1,.47,1.38,2.52,2.52,0,0,1-.48,1.52,3,3,0,0,1-1.35,1,4.94,4.94,0,0,1-2,.37A7,7,0,0,1,206.33,54.88Z"/><path class="cls-2" d="M60.76,30.14a.72.72,0,0,0-.66-.44H46.56a10.94,10.94,0,0,0,5.56-9.51V9.41a.71.71,0,0,0-1.21-.5l-9.63,9.63A11,11,0,0,0,38.47,7.77L30.9.21a.71.71,0,0,0-1.21.5V14.32A11,11,0,0,0,20.1,8.7H9.41A.72.72,0,0,0,8.9,9.92l9.5,9.49A10.77,10.77,0,0,0,7.94,22.17L.21,29.9a.69.69,0,0,0-.16.77.71.71,0,0,0,.66.44H14.15a10.78,10.78,0,0,0-5.46,9.36V51.4a.72.72,0,0,0,.44.66.66.66,0,0,0,.28,0,.7.7,0,0,0,.5-.21l9.62-9.62A11,11,0,0,0,22.32,53l7.59,7.59a.75.75,0,0,0,.5.21.67.67,0,0,0,.28-.06.72.72,0,0,0,.44-.66V46.52a11,11,0,0,0,9.55,5.59H51.41a.71.71,0,0,0,.66-.44.69.69,0,0,0-.16-.77l-9.55-9.56a10.74,10.74,0,0,0,2.9.4A10.89,10.89,0,0,0,53,38.54l7.62-7.62A.73.73,0,0,0,60.76,30.14ZM30.52,40.8c-8.77-6.47-11-12.64-10.23-16.28a4.48,4.48,0,0,1,3.6-3.62,4.3,4.3,0,0,1,.86-.08c3.66,0,5.05,4.81,5.11,5a.68.68,0,0,0,.64.5.67.67,0,0,0,.66-.46c0-.06,2.07-5.91,6.42-5.09A4.27,4.27,0,0,1,41,24.25C41.84,27.92,39.49,34.17,30.52,40.8ZM50.7,20.19a9.51,9.51,0,0,1-9,9.48A10.19,10.19,0,0,0,42.35,24,6,6,0,0,0,40.8,21l9.9-9.9ZM37.46,8.78a9.55,9.55,0,0,1,1.75,11.14,6.13,6.13,0,0,0-1.37-.46c-3.1-.59-5.36,1.4-6.73,3.48V2.43ZM20.1,10.13a9.6,9.6,0,0,1,9.59,9.58v2.65c-1.27-1.81-3.26-3.33-6.05-2.8a6,6,0,0,0-2.18.9L11.12,10.13ZM8.94,23.18a9.36,9.36,0,0,1,11.22-1.52A6.33,6.33,0,0,0,19,24.22a10.37,10.37,0,0,0,.5,5.47h-17Zm1.18,17.29a9.35,9.35,0,0,1,9.35-9.35H20a21.76,21.76,0,0,0,3.46,5.19L10.12,49.68ZM23.33,52a9.57,9.57,0,0,1,0-13.51l1.14-1.13a41.09,41.09,0,0,0,5.23,4.52V58.38Zm26.36-1.32h-9A9.57,9.57,0,0,1,31.17,42a41.86,41.86,0,0,0,5.29-4.54l1.07,1.07.1.09ZM52,37.53a9.48,9.48,0,0,1-13.34.09l-1.2-1.19a23.69,23.69,0,0,0,3.66-5.3H58.38Z"/></g></g></svg>