<svg xmlns="http://www.w3.org/2000/svg" viewBox="0 0 614.69 174.21"><defs><style>.cls-1{fill:#5d5c60;}.cls-2{fill:#31c2d1;}</style></defs><g id="Capa_2" data-name="Capa 2"><g id="Landing"><path class="cls-1" d="M253.45,86.34H220.37q-.87,2.47-1.86,5.37c-.66,1.94-1.29,3.83-1.91,5.68s-1.22,3.58-1.79,5.19-1,2.94-1.36,4a10.34,10.34,0,0,1-4.07.74,6.11,6.11,0,0,1-3.52-1,3.81,3.81,0,0,1-1.55-3.39,7.57,7.57,0,0,1,.38-2.29c.24-.78.53-1.62.86-2.53q1.84-5.19,4.75-13.33t6.3-17.35q3.39-9.2,6.91-18.52T230,32.14a16.19,16.19,0,0,1,3-1,16.62,16.62,0,0,1,4.07-.5,15.37,15.37,0,0,1,4.75.74,4.2,4.2,0,0,1,2.91,2.47q3,7.17,6.35,16.36t6.86,18.83q3.45,9.63,6.6,19t5.62,16.85a7.68,7.68,0,0,1-2.35,1.79,6.81,6.81,0,0,1-3.08.68,5.37,5.37,0,0,1-3.58-1,7.9,7.9,0,0,1-2.1-3.52ZM236.91,39.06q-1.36,3.7-3.09,8.46c-1.15,3.16-2.34,6.48-3.58,9.93s-2.47,7-3.7,10.5-2.39,6.91-3.46,10.12h27.78Q249,72.52,247,66.9t-3.76-10.8q-1.8-5.19-3.34-9.57t-2.53-7.47Z"/><path class="cls-1" d="M286.23,104.86a5.2,5.2,0,0,1-1.54-4V31.53A14.57,14.57,0,0,1,286.6,31a12.26,12.26,0,0,1,2.78-.31c3.62,0,5.43,1.53,5.43,4.57V97.7h35.43a5.54,5.54,0,0,1,1.36,4.08,4.78,4.78,0,0,1-1.11,3.33,3.8,3.8,0,0,1-3,1.23H290.12A5.37,5.37,0,0,1,286.23,104.86Z"/><path class="cls-1" d="M397.65,39.55a4.39,4.39,0,0,1-1,3,6.79,6.79,0,0,1-2.41,1.86,49.51,49.51,0,0,0-7.53-4.2,30.77,30.77,0,0,0-21.73,0,23.65,23.65,0,0,0-8.39,5.8,26.9,26.9,0,0,0-5.62,9.63,40.16,40.16,0,0,0-2,13.34,40.54,40.54,0,0,0,2,13.33,26.92,26.92,0,0,0,5.49,9.51,22.36,22.36,0,0,0,8.46,5.74,30.28,30.28,0,0,0,11,1.91A31.72,31.72,0,0,0,387,97.64a30.78,30.78,0,0,0,8-4.26,6.22,6.22,0,0,1,2.34,1.79,4.51,4.51,0,0,1,1.11,3q0,2.59-3,4.7a29.21,29.21,0,0,1-7.78,3.52A43.33,43.33,0,0,1,375.06,108a41.44,41.44,0,0,1-14.45-2.47,31.61,31.61,0,0,1-11.54-7.35A34.73,34.73,0,0,1,341.35,86a46.78,46.78,0,0,1-2.84-17,46.4,46.4,0,0,1,2.9-17.1,35.78,35.78,0,0,1,7.84-12.29,32.08,32.08,0,0,1,11.55-7.41,39.45,39.45,0,0,1,13.89-2.47,47.4,47.4,0,0,1,9.32.87,32.92,32.92,0,0,1,7.28,2.28A15.16,15.16,0,0,1,396,36,5.29,5.29,0,0,1,397.65,39.55Z"/><path class="cls-1" d="M459.75,86.34H426.66c-.58,1.65-1.19,3.44-1.85,5.37s-1.3,3.83-1.91,5.68-1.22,3.58-1.79,5.19-1,2.94-1.36,4a10.39,10.39,0,0,1-4.08.74,6.08,6.08,0,0,1-3.51-1,3.81,3.81,0,0,1-1.55-3.39,7.87,7.87,0,0,1,.37-2.29c.25-.78.54-1.62.87-2.53q1.84-5.19,4.75-13.33t6.3-17.35q3.39-9.2,6.91-18.52t6.48-16.73a16.3,16.3,0,0,1,3-1,16.76,16.76,0,0,1,4.08-.5,15.42,15.42,0,0,1,4.75.74,4.19,4.19,0,0,1,2.9,2.47q3,7.17,6.36,16.36t6.85,18.83q3.46,9.63,6.61,19t5.62,16.85a7.68,7.68,0,0,1-2.35,1.79,6.85,6.85,0,0,1-3.09.68,5.4,5.4,0,0,1-3.58-1,8.09,8.09,0,0,1-2.1-3.52ZM443.2,39.06q-1.35,3.7-3.08,8.46c-1.16,3.16-2.35,6.48-3.58,9.93s-2.47,7-3.71,10.5-2.38,6.91-3.45,10.12h27.78q-1.86-5.55-3.83-11.17t-3.77-10.8q-1.79-5.19-3.33-9.57t-2.53-7.47Z"/><path class="cls-1" d="M536.54,86.34H503.45q-.85,2.47-1.85,5.37c-.66,1.94-1.29,3.83-1.91,5.68s-1.22,3.58-1.79,5.19-1,2.94-1.36,4a10.34,10.34,0,0,1-4.07.74,6.11,6.11,0,0,1-3.52-1,3.81,3.81,0,0,1-1.55-3.39,7.87,7.87,0,0,1,.37-2.29c.25-.78.54-1.62.87-2.53q1.85-5.19,4.75-13.33t6.3-17.35q3.39-9.2,6.91-18.52t6.48-16.73a16.19,16.19,0,0,1,3-1,16.62,16.62,0,0,1,4.07-.5,15.37,15.37,0,0,1,4.75.74,4.16,4.16,0,0,1,2.9,2.47q3,7.17,6.36,16.36T541,69.06q3.45,9.63,6.6,19t5.62,16.85a7.68,7.68,0,0,1-2.35,1.79,6.81,6.81,0,0,1-3.08.68,5.41,5.41,0,0,1-3.59-1,8,8,0,0,1-2.09-3.52ZM520,39.06q-1.37,3.7-3.09,8.46c-1.15,3.16-2.35,6.48-3.58,9.93s-2.47,7-3.7,10.5-2.39,6.91-3.46,10.12H534q-1.86-5.55-3.83-11.17t-3.76-10.8q-1.8-5.19-3.34-9.57t-2.53-7.47Z"/><path class="cls-1" d="M569.32,104.86a5.2,5.2,0,0,1-1.54-4V31.53a14.57,14.57,0,0,1,1.91-.56,12.26,12.26,0,0,1,2.78-.31c3.62,0,5.43,1.53,5.43,4.57V97.7h35.43a5.54,5.54,0,0,1,1.36,4.08,4.78,4.78,0,0,1-1.11,3.33,3.8,3.8,0,0,1-3,1.23H573.21A5.37,5.37,0,0,1,569.32,104.86Z"/><path class="cls-2" d="M322.32,156.26a1.61,1.61,0,0,1-.59,1.25,2.07,2.07,0,0,1-1.38.51,2.13,2.13,0,0,1-1.84-1l-5.5-8.53a5.87,5.87,0,0,0-2-2.07,5.66,5.66,0,0,0-2.79-.6h-4.63v10a2.14,2.14,0,0,1-.56,1.56,2,2,0,0,1-1.53.57,2.06,2.06,0,0,1-1.52-.57,2.11,2.11,0,0,1-.58-1.56V130.87a2,2,0,0,1,.56-1.5,2.07,2.07,0,0,1,1.54-.55H311.7q4.8,0,7.32,2.13a7.71,7.71,0,0,1,2.52,6.24,7.81,7.81,0,0,1-1.93,5.51,9.07,9.07,0,0,1-5.49,2.69,4.83,4.83,0,0,1,1.93,1,8.9,8.9,0,0,1,1.68,2.05l4.22,6.64A2,2,0,0,1,322.32,156.26ZM311.21,142.4a7.43,7.43,0,0,0,4.73-1.25,4.71,4.71,0,0,0,1.54-3.88,4.6,4.6,0,0,0-1.52-3.84,7.62,7.62,0,0,0-4.75-1.21h-7.67V142.4Z"/><path class="cls-2" d="M333.17,157.18a2,2,0,0,1-.55-1.49V130.87a2,2,0,0,1,.55-1.5,2.07,2.07,0,0,1,1.54-.55H349.8a2.14,2.14,0,0,1,1.46.45,1.61,1.61,0,0,1,.51,1.27,1.53,1.53,0,0,1-.51,1.25,2.19,2.19,0,0,1-1.46.43h-13v9.11H349a2.16,2.16,0,0,1,1.46.45,1.84,1.84,0,0,1,0,2.54,2.11,2.11,0,0,1-1.46.46H336.76v9.55h13c1.31,0,2,.56,2,1.68a1.62,1.62,0,0,1-.51,1.28,2.14,2.14,0,0,1-1.46.45H334.71A2.08,2.08,0,0,1,333.17,157.18Z"/><path class="cls-2" d="M384.73,129.21a2.17,2.17,0,0,1,.55,1.54v25.06a2.14,2.14,0,0,1-.57,1.54,2,2,0,0,1-1.48.59,1.87,1.87,0,0,1-1.64-.82l-16.08-21.2v19.89a2.17,2.17,0,0,1-.55,1.54,1.93,1.93,0,0,1-1.46.59,1.85,1.85,0,0,1-1.43-.57,2.18,2.18,0,0,1-.54-1.56V130.75a2.15,2.15,0,0,1,.58-1.54,1.94,1.94,0,0,1,1.48-.6,1.87,1.87,0,0,1,1.63.83l16.08,21.24V130.75a2.21,2.21,0,0,1,.54-1.54,1.81,1.81,0,0,1,1.43-.6A1.9,1.9,0,0,1,384.73,129.21Z"/><path class="cls-2" d="M402.24,156.26a12,12,0,0,1-4.65-5.13A17.38,17.38,0,0,1,396,143.3a17.94,17.94,0,0,1,1.62-7.9,11.74,11.74,0,0,1,4.65-5.12,15.21,15.21,0,0,1,14.32,0,11.74,11.74,0,0,1,4.65,5.12,19.85,19.85,0,0,1,0,15.71,11.82,11.82,0,0,1-4.65,5.15,13.85,13.85,0,0,1-7.18,1.81A13.63,13.63,0,0,1,402.24,156.26Zm13.89-4.59c1.61-2,2.42-4.78,2.42-8.41s-.8-6.43-2.4-8.39a9.24,9.24,0,0,0-13.5,0c-1.6,2-2.4,4.75-2.4,8.39s.8,6.44,2.4,8.41a8.16,8.16,0,0,0,6.71,3A8.27,8.27,0,0,0,416.13,151.67Z"/><path class="cls-2" d="M455.67,128.57a2.21,2.21,0,0,1,1.47.56,1.68,1.68,0,0,1,.66,1.33,2.33,2.33,0,0,1-.2.78L446,156.59a2.13,2.13,0,0,1-.9,1,2.49,2.49,0,0,1-1.32.37,2.57,2.57,0,0,1-1.33-.37,2.12,2.12,0,0,1-.92-1L430,131.24a2.11,2.11,0,0,1-.2-.78,1.63,1.63,0,0,1,.67-1.35,2.34,2.34,0,0,1,1.5-.54,1.86,1.86,0,0,1,1.81,1.15l10,22.52,10-22.52A1.84,1.84,0,0,1,455.67,128.57Z"/><path class="cls-2" d="M489.51,156.1a1.67,1.67,0,0,1-.64,1.31,2.2,2.2,0,0,1-1.42.53,1.76,1.76,0,0,1-1-.31,1.87,1.87,0,0,1-.72-.88L483,150.6H468l-2.7,6.15a1.85,1.85,0,0,1-.74.88,1.88,1.88,0,0,1-1,.31,2.2,2.2,0,0,1-1.45-.53,1.64,1.64,0,0,1-.64-1.31,2.15,2.15,0,0,1,.21-.82L473.22,130a2.19,2.19,0,0,1,.92-1,2.71,2.71,0,0,1,1.34-.37,2.67,2.67,0,0,1,1.33.37,2.19,2.19,0,0,1,.92,1l11.57,25.31A2.15,2.15,0,0,1,489.51,156.1Zm-20-8.86h12l-6-13.58Z"/><path class="cls-2" d="M519.72,145.35a7.27,7.27,0,0,1,1.37,4.51,7.07,7.07,0,0,1-2.56,5.81,11.12,11.12,0,0,1-7.16,2.07H500.91a2.08,2.08,0,0,1-1.54-.56,2,2,0,0,1-.55-1.49V130.87a2,2,0,0,1,.55-1.5,2.07,2.07,0,0,1,1.54-.55h10a11,11,0,0,1,7,2,7.3,7.3,0,0,1,1.31,9.54,7.13,7.13,0,0,1-3.38,2.5A7.09,7.09,0,0,1,519.72,145.35Zm-16.76-4h7.3q6.07,0,6.07-4.59a4,4,0,0,0-1.5-3.41,7.65,7.65,0,0,0-4.57-1.11H503Zm12.59,11.85a4.2,4.2,0,0,0,1.48-3.56,4.46,4.46,0,0,0-1.5-3.68,7.32,7.32,0,0,0-4.61-1.21h-8v9.6h8A7.51,7.51,0,0,0,515.55,153.18Z"/><path class="cls-2" d="M532.1,157.2a1.88,1.88,0,0,1-.55-1.43v-25a2.14,2.14,0,0,1,.57-1.54,2,2,0,0,1,1.52-.6,2,2,0,0,1,2.13,2.14v23.46h12.47a2.14,2.14,0,0,1,1.46.45,2,2,0,0,1,0,2.63,2.14,2.14,0,0,1-1.46.45H533.6A2.06,2.06,0,0,1,532.1,157.2Z"/><path class="cls-2" d="M559.46,157.18a2,2,0,0,1-.55-1.49V130.87a2,2,0,0,1,.55-1.5,2.07,2.07,0,0,1,1.54-.55h15.09a2.14,2.14,0,0,1,1.46.45,1.61,1.61,0,0,1,.51,1.27,1.53,1.53,0,0,1-.51,1.25,2.19,2.19,0,0,1-1.46.43h-13v9.11h12.22a2.16,2.16,0,0,1,1.46.45,1.84,1.84,0,0,1,0,2.54,2.11,2.11,0,0,1-1.46.46H563.05v9.55h13c1.31,0,2,.56,2,1.68a1.62,1.62,0,0,1-.51,1.28,2.14,2.14,0,0,1-1.46.45H561A2.08,2.08,0,0,1,559.46,157.18Z"/><path class="cls-2" d="M591,157.2a11.71,11.71,0,0,1-4.49-2.37,2.11,2.11,0,0,1-.78-1.69,2,2,0,0,1,.41-1.25,1.25,1.25,0,0,1,1-.51,2.73,2.73,0,0,1,1.39.53,13.6,13.6,0,0,0,8.33,2.71,8.72,8.72,0,0,0,5-1.23,4,4,0,0,0,1.77-3.53,2.93,2.93,0,0,0-1.64-2.71,22,22,0,0,0-5.25-1.72,31.15,31.15,0,0,1-5.66-1.68,8.41,8.41,0,0,1-3.47-2.56,6.59,6.59,0,0,1-1.25-4.13,7.59,7.59,0,0,1,1.37-4.45,9.08,9.08,0,0,1,3.84-3,13.68,13.68,0,0,1,5.62-1.09,17.08,17.08,0,0,1,5.37.82,11.36,11.36,0,0,1,4.18,2.42,2.15,2.15,0,0,1,.83,1.68,1.92,1.92,0,0,1-.43,1.23,1.28,1.28,0,0,1-1,.54,2.62,2.62,0,0,1-1.35-.54,15.06,15.06,0,0,0-3.55-2.07,11.31,11.31,0,0,0-4-.63,8.18,8.18,0,0,0-4.92,1.29,4.2,4.2,0,0,0-1.77,3.59,3.31,3.31,0,0,0,1.56,3,17.06,17.06,0,0,0,5,1.83,40.39,40.39,0,0,1,5.84,1.7,9,9,0,0,1,3.57,2.42,5.82,5.82,0,0,1,1.33,4,7.35,7.35,0,0,1-1.37,4.37,8.88,8.88,0,0,1-3.86,3,14.56,14.56,0,0,1-5.72,1A20,20,0,0,1,591,157.2Z"/><path class="cls-2" d="M174.06,86.34a2,2,0,0,0-1.89-1.25h-38.8a31.31,31.31,0,0,0,15.94-27.24V27a2,2,0,0,0-3.48-1.44L118.24,53.11a31.47,31.47,0,0,0-8-30.85L88.53.6A2,2,0,0,0,85.05,2V41A31.55,31.55,0,0,0,57.58,24.93H26.94a2,2,0,0,0-1.44,3.48l27.2,27.2a30.81,30.81,0,0,0-30,7.9L.6,85.65a2,2,0,0,0-.44,2.22A2,2,0,0,0,2,89.13H40.53a30.86,30.86,0,0,0-15.63,26.8v31.31a2.05,2.05,0,0,0,1.26,1.89,2.12,2.12,0,0,0,.78.15,2,2,0,0,0,1.44-.59l27.56-27.56a31.49,31.49,0,0,0,8,30.76l21.73,21.72a2,2,0,0,0,1.44.6,2.08,2.08,0,0,0,.78-.15,2,2,0,0,0,1.26-1.89V133.26a31.46,31.46,0,0,0,27.38,16h30.73a2,2,0,0,0,1.44-3.48l-27.37-27.37a31.5,31.5,0,0,0,8.31,1.14,31.1,31.1,0,0,0,22.13-9.17l21.83-21.83A2.05,2.05,0,0,0,174.06,86.34ZM87.42,116.89C62.32,98.33,55.79,80.67,58.11,70.24c1.24-5.57,5-9.35,10.33-10.37a13.23,13.23,0,0,1,2.45-.23c10.5,0,14.47,13.79,14.65,14.41a1.94,1.94,0,0,0,1.83,1.43,1.92,1.92,0,0,0,1.9-1.32c.06-.17,5.92-16.94,18.39-14.56,5.08,1,8.67,4.56,9.85,9.86C119.85,80,113.13,97.89,87.42,116.89Zm57.81-59A27.23,27.23,0,0,1,119.56,85c2.36-6.33,2.76-11.92,1.76-16.38a17.1,17.1,0,0,0-4.44-8.36l28.35-28.36Zm-37.92-32.7a27.39,27.39,0,0,1,5,31.91,16.06,16.06,0,0,0-3.93-1.3c-8.87-1.7-15.36,4-19.26,10V7ZM57.58,29A27.49,27.49,0,0,1,85,56.47v7.58c-3.62-5.17-9.34-9.54-17.33-8a17,17,0,0,0-6.25,2.58L31.86,29Zm-32,37.38a26.8,26.8,0,0,1,32.12-4.34,18.12,18.12,0,0,0-3.44,7.34c-.57,2.56-1.17,8.09,1.42,15.66H7ZM29,115.93A26.81,26.81,0,0,1,55.77,89.15h1.59A62.11,62.11,0,0,0,67.3,104L29,142.32ZM66.84,149a27.4,27.4,0,0,1,0-38.7L70.09,107a118.41,118.41,0,0,0,15,13v47.24Zm75.51-3.79H116.54A27.4,27.4,0,0,1,89.3,120.35a122.26,122.26,0,0,0,15.16-13l3.05,3.06.28.25Zm6.55-37.69a27.2,27.2,0,0,1-38.22.25l-3.43-3.42a67.67,67.67,0,0,0,10.5-15.19h49.5Z"/></g></g></svg>